<svg width="155" height="157" viewBox="0 0 155 157" fill="none" xmlns="http://www.w3.org/2000/svg">
<path d="M57.5 151.5C57.5 154.538 59.9624 157 63 157C66.0376 157 68.5 154.538 68.5 151.5H57.5ZM66.5 110L71.7411 111.668C72.1935 110.246 72.0488 108.701 71.3402 107.388C70.6315 106.075 69.4198 105.106 67.983 104.704L66.5 110ZM34.5 36L38.8248 39.398C39.7067 38.2755 40.1177 36.854 39.9708 35.4341L34.5 36ZM36 7L37.0387 1.59896C34.0853 1.03101 31.2234 2.94057 30.6141 5.88567L36 7ZM63 16L60.6839 20.9885C61.9391 21.5713 63.3678 21.6595 64.6851 21.2355L63 16ZM112 16L110.196 21.1959C111.723 21.7259 113.406 21.5574 114.798 20.7351L112 16ZM136 5.5L141.234 3.81148C140.311 0.948253 137.258 -0.641547 134.383 0.243215L136 5.5ZM140 36L134.512 35.6341C134.44 36.7133 134.688 37.7897 135.225 38.7288L140 36ZM107 110L105.825 104.627C104.313 104.958 103.011 105.91 102.237 107.25C101.463 108.589 101.29 110.193 101.759 111.668L107 110ZM106.5 151.5C106.5 154.538 108.962 157 112 157C115.038 157 117.5 154.538 117.5 151.5H106.5ZM25 71L19.5609 71.8159L25 71ZM54 106.5L51.9175 111.591L52.2113 111.711L52.517 111.796L54 106.5ZM87.5 12.5L87.4496 17.9998L87.5209 18.0004L87.5922 17.9992L87.5 12.5ZM100.5 13L101.217 7.547L100.5 13ZM75.5 13L74.8628 7.53704L74.8628 7.53704L75.5 13ZM26.6739 48.2338L21.6479 46.0001L26.6739 48.2338ZM139.588 16.6237L144.823 14.9352L139.588 16.6237ZM146.953 79.1416L152.315 80.3671L146.953 79.1416ZM141.792 39.1364L137.017 41.8651L141.792 39.1364ZM118.065 107.58L116.89 102.207L118.065 107.58ZM109.793 118.778L104.552 120.446L109.793 118.778ZM111.729 129.6L106.284 130.378L111.729 129.6ZM64.3652 116.71L59.1241 115.042L64.3652 116.71ZM119.135 11.784L116.337 7.04894L119.135 11.784ZM51.0955 105.312L49.013 110.402L51.0955 105.312ZM26.1139 49.4937L21.088 47.2599L26.1139 49.4937ZM35.3729 94.6907L31.5674 98.6616L35.3729 94.6907ZM148.263 73.4107L153.625 74.6362L148.263 73.4107ZM141.454 91.4626L136.903 88.3743L141.454 91.4626ZM40.4904 91.9772L39.1783 90.7197L31.5674 98.6616L32.8795 99.919L40.4904 91.9772ZM68.5 151.5V133.5H57.5V151.5H68.5ZM68.5 133.5V125.502H57.5V133.5H68.5ZM69.6062 118.377L71.7411 111.668L61.2589 108.332L59.1241 115.042L69.6062 118.377ZM101.759 111.668L104.552 120.446L115.034 117.111L112.241 108.332L101.759 111.668ZM105.385 124.086L106.284 130.378L117.173 128.823L116.274 122.53L105.385 124.086ZM116.89 102.207L105.825 104.627L108.175 115.373L119.24 112.952L116.89 102.207ZM135.225 38.7288L137.017 41.8651L146.568 36.4076L144.775 33.2712L135.225 38.7288ZM142.902 72.1851L141.592 77.916L152.315 80.3671L153.625 74.6362L142.902 72.1851ZM137.287 87.8089L136.903 88.3743L146.005 94.5509L146.389 93.9854L137.287 87.8089ZM67.983 104.704L55.483 101.204L52.517 111.796L65.017 115.296L67.983 104.704ZM56.0825 101.409L53.178 100.221L49.013 110.402L51.9175 111.591L56.0825 101.409ZM130.766 7.18852L134.354 18.3122L144.823 14.9352L141.234 3.81148L130.766 7.18852ZM135.206 25.2223L134.512 35.6341L145.488 36.3659L146.182 25.9541L135.206 25.2223ZM114.798 20.7351L121.933 16.5191L116.337 7.04894L109.202 11.2649L114.798 20.7351ZM128.909 13.4364L137.617 10.7568L134.383 0.243215L125.674 2.92286L128.909 13.4364ZM87.5 12.5C87.5922 17.9992 87.592 17.9992 87.5918 17.9992C87.5918 17.9992 87.5917 17.9992 87.5916 17.9992C87.5916 17.9992 87.5916 17.9992 87.5918 17.9992C87.5921 17.9992 87.593 17.9992 87.5943 17.9992C87.597 17.9992 87.6016 17.9991 87.608 17.999C87.621 17.9988 87.6415 17.9985 87.6692 17.9981C87.7247 17.9973 87.8089 17.9962 87.9191 17.995C88.1397 17.9927 88.4639 17.9899 88.8695 17.9885C89.6819 17.9858 90.8144 17.9885 92.0907 18.0104C94.7097 18.0553 97.6938 18.1782 99.7825 18.453L101.217 7.547C98.4664 7.18501 94.9505 7.05785 92.2794 7.012C90.9107 6.98851 89.7007 6.98563 88.8318 6.9886C88.3968 6.99009 88.0456 6.99306 87.801 6.99568C87.6787 6.997 87.5829 6.99823 87.5164 6.99915C87.4832 6.99961 87.4573 7 87.4391 7.00028C87.43 7.00042 87.4228 7.00053 87.4175 7.00061C87.4149 7.00066 87.4128 7.00069 87.4112 7.00072C87.4104 7.00073 87.4097 7.00074 87.4091 7.00075C87.4088 7.00076 87.4085 7.00076 87.4084 7.00076C87.4081 7.00077 87.4078 7.00077 87.5 12.5ZM99.7825 18.453C101.641 18.6975 104.177 19.3449 106.428 20.0049C107.515 20.3235 108.468 20.6249 109.148 20.8462C109.487 20.9566 109.756 21.0464 109.937 21.1074C110.027 21.138 110.096 21.1613 110.14 21.1763C110.162 21.1839 110.178 21.1894 110.187 21.1927C110.192 21.1943 110.195 21.1954 110.197 21.196C110.197 21.1962 110.198 21.1964 110.198 21.1963C110.198 21.1963 110.198 21.1963 110.197 21.1962C110.197 21.1962 110.197 21.1961 110.197 21.1961C110.197 21.196 110.196 21.1959 112 16C113.804 10.8041 113.803 10.804 113.803 10.8039C113.803 10.8038 113.802 10.8037 113.802 10.8036C113.801 10.8033 113.801 10.8031 113.8 10.8028C113.798 10.8022 113.796 10.8014 113.793 10.8006C113.788 10.7988 113.781 10.7965 113.773 10.7936C113.756 10.7878 113.733 10.7797 113.703 10.7696C113.644 10.7493 113.56 10.7206 113.453 10.6844C113.238 10.6122 112.932 10.5101 112.553 10.3866C111.795 10.14 110.736 9.80495 109.523 9.44925C107.174 8.76053 103.961 7.90799 101.217 7.547L99.7825 18.453ZM34.9613 12.401L43.3731 14.0187L45.4504 3.21661L37.0387 1.59896L34.9613 12.401ZM50.9217 16.4561L60.6839 20.9885L65.3161 11.0115L55.5539 6.479L50.9217 16.4561ZM39.9708 35.4341L39.4104 30.0169L28.4688 31.1488L29.0292 36.5659L39.9708 35.4341ZM40.236 13.6724L41.3859 8.11433L30.6141 5.88567L29.4641 11.4437L40.236 13.6724ZM31.1399 51.7274L31.6998 50.4676L21.6479 46.0001L21.088 47.2599L31.1399 51.7274ZM36.8633 41.8944L38.8248 39.398L30.1752 32.602L28.2138 35.0984L36.8633 41.8944ZM30.4391 70.1841L29.8858 66.495L19.0075 68.1267L19.5609 71.8159L30.4391 70.1841ZM31.2783 75.7782L30.4391 70.1841L19.5609 71.8159L20.4 77.41L31.2783 75.7782ZM106.5 133.419V141.5H117.5V133.419H106.5ZM106.5 141.5V151.5H117.5V141.5H106.5ZM63 16C64.6851 21.2355 64.6848 21.2356 64.6846 21.2357C64.6845 21.2357 64.6843 21.2358 64.6842 21.2358C64.684 21.2358 64.6839 21.2359 64.684 21.2359C64.684 21.2358 64.6845 21.2357 64.6855 21.2354C64.6874 21.2348 64.6911 21.2336 64.6965 21.2318C64.7074 21.2284 64.7252 21.2227 64.7496 21.2149C64.7985 21.1994 64.8739 21.1756 64.9735 21.1445C65.1726 21.0822 65.4677 20.991 65.8392 20.879C66.5839 20.6545 67.6277 20.3491 68.8174 20.027C71.2715 19.3626 74.0699 18.7041 76.1372 18.463L74.8628 7.53704C71.9438 7.87752 68.4921 8.71905 65.9428 9.40923C64.6308 9.76443 63.4846 10.0999 62.6646 10.3471C62.2538 10.4709 61.9229 10.5732 61.6917 10.6454C61.576 10.6816 61.4852 10.7103 61.4216 10.7305C61.3898 10.7406 61.3648 10.7485 61.3469 10.7542C61.338 10.7571 61.3308 10.7594 61.3254 10.7611C61.3228 10.762 61.3205 10.7627 61.3188 10.7633C61.3179 10.7635 61.3171 10.7638 61.3165 10.764C61.3162 10.7641 61.3158 10.7642 61.3156 10.7643C61.3152 10.7644 61.3149 10.7645 63 16ZM76.1372 18.463C78.2986 18.2109 81.0908 18.0899 83.443 18.0365C84.5977 18.0103 85.6074 18.0012 86.3267 17.9986C86.6858 17.9973 86.9713 17.9976 87.1648 17.9983C87.2615 17.9986 87.3351 17.999 87.3834 17.9993C87.4075 17.9994 87.4253 17.9996 87.4364 17.9997C87.442 17.9997 87.4459 17.9997 87.4481 17.9998C87.4492 17.9998 87.4499 17.9998 87.4501 17.9998C87.4502 17.9998 87.4503 17.9998 87.4502 17.9998C87.4501 17.9998 87.45 17.9998 87.45 17.9998C87.4498 17.9998 87.4496 17.9998 87.5 12.5C87.5504 7.00023 87.5502 7.00023 87.5499 7.00023C87.5497 7.00022 87.5494 7.00022 87.5492 7.00022C87.5486 7.00022 87.548 7.00021 87.5473 7.0002C87.5458 7.00019 87.5439 7.00017 87.5415 7.00015C87.5368 7.00011 87.5304 7.00006 87.5223 7C87.506 6.99987 87.4831 6.9997 87.4536 6.99951C87.3948 6.99914 87.31 6.99868 87.2017 6.99832C86.9852 6.99759 86.674 6.99723 86.287 6.99863C85.5139 7.00142 84.4327 7.01122 83.1935 7.03933C80.7579 7.09458 77.55 7.22359 74.8628 7.53704L76.1372 18.463ZM29.8858 66.495C29.3442 62.8843 29.374 59.2109 29.9743 55.6096L19.1239 53.8012C18.334 58.5407 18.2947 63.375 19.0075 68.1267L29.8858 66.495ZM31.6998 50.4676C33.0599 47.4074 34.7943 44.5277 36.8633 41.8944L28.2138 35.0984C25.5829 38.4468 23.3774 42.1087 21.6479 46.0001L31.6998 50.4676ZM39.4104 30.0169C38.8458 24.5586 39.1242 19.046 40.236 13.6724L29.4641 11.4437C28.1238 17.9222 27.7881 24.5683 28.4688 31.1488L39.4104 30.0169ZM43.3731 14.0187C45.9794 14.5199 48.5145 15.3385 50.9217 16.4561L55.5539 6.479C52.3319 4.98308 48.9388 3.88746 45.4504 3.21661L43.3731 14.0187ZM134.354 18.3122C135.073 20.5409 135.362 22.8858 135.206 25.2223L146.182 25.9541C146.43 22.2282 145.969 18.489 144.823 14.9352L134.354 18.3122ZM141.592 77.916C140.783 81.4524 139.323 84.8072 137.287 87.8089L146.389 93.9854C149.193 89.8533 151.202 85.2351 152.315 80.3671L141.592 77.916ZM137.017 41.8651C140.708 48.324 142.94 55.5124 143.558 62.9257L154.52 62.0122C153.769 52.9994 151.055 44.2601 146.568 36.4076L137.017 41.8651ZM124.84 99.2624C122.34 100.609 119.664 101.6 116.89 102.207L119.24 112.952C123.014 112.127 126.654 110.779 130.055 108.948L124.84 99.2624ZM104.552 120.446C104.93 121.634 105.209 122.852 105.385 124.086L116.274 122.53C116.012 120.692 115.597 118.88 115.034 117.111L104.552 120.446ZM106.284 130.378C106.428 131.385 106.5 132.401 106.5 133.419H117.5C117.5 131.881 117.391 130.345 117.173 128.823L106.284 130.378ZM68.5 125.502C68.5 123.085 68.8731 120.681 69.6062 118.377L59.1241 115.042C58.0478 118.424 57.5 121.953 57.5 125.502H68.5ZM121.933 16.5191C124.129 15.2213 126.47 14.1867 128.909 13.4364L125.674 2.92286C122.41 3.92701 119.276 5.3119 116.337 7.04894L121.933 16.5191ZM32.8795 99.919C37.551 104.396 43.0244 107.952 49.013 110.402L53.178 100.221C48.4685 98.2947 44.1642 95.4978 40.4904 91.9772L32.8795 99.919ZM21.088 47.2599C20.1596 49.3486 19.4997 51.5466 19.1239 53.8012L29.9743 55.6096C30.1973 54.2715 30.5889 52.9671 31.1399 51.7274L21.088 47.2599ZM39.1783 90.7197C36.771 88.4126 34.8052 85.6853 33.3778 82.6719L23.4367 87.3808C25.4375 91.6047 28.1929 95.4277 31.5674 98.6616L39.1783 90.7197ZM143.558 62.9257C143.817 66.0276 143.595 69.1508 142.902 72.1851L153.625 74.6362C154.571 70.4992 154.872 66.2412 154.52 62.0122L143.558 62.9257ZM33.3778 82.6719C32.3439 80.4893 31.6365 78.1666 31.2783 75.7782L20.4 77.41C20.9181 80.8644 21.9413 84.224 23.4367 87.3808L33.3778 82.6719ZM130.055 108.948C136.453 105.503 141.925 100.564 146.005 94.5509L136.903 88.3743C133.817 92.9218 129.679 96.657 124.84 99.2624L130.055 108.948Z" fill="black"/>
<path d="M63 136.5H54H46L41.3994 135.925C39.1495 135.644 36.9638 134.982 34.9358 133.968L31.613 132.307C30.5398 131.77 29.5171 131.138 28.5573 130.418L24 127L18 121.5L13.9889 118.218C12.9986 117.408 11.9328 116.695 10.8062 116.088L6 113.5" stroke="black" stroke-width="11" stroke-linecap="round"/>
</svg>
