<svg width="166" height="156" viewBox="0 0 166 156" fill="none" xmlns="http://www.w3.org/2000/svg">
<circle cx="18.5" cy="18.5" r="14.5" stroke="black" stroke-width="8"/>
<path d="M129 96.5C129 94.3332 128.573 92.1876 127.744 90.1857C126.915 88.1839 125.699 86.3649 124.167 84.8327C122.635 83.3006 120.816 82.0852 118.814 81.256C116.812 80.4268 114.667 80 112.5 80C110.333 80 108.188 80.4268 106.186 81.256C104.184 82.0852 102.365 83.3006 100.833 84.8327C99.3006 86.3649 98.0852 88.1839 97.256 90.1857C96.4268 92.1876 96 94.3332 96 96.5" stroke="black" stroke-width="8"/>
<path d="M162 88.5C162 80.8406 159.655 73.3648 155.279 67.0781C150.904 60.7914 144.708 55.9953 137.525 53.3348C130.343 50.6744 122.518 50.2771 115.103 52.1965C107.688 54.1159 100.99 58.1887 96 64" stroke="black" stroke-width="8" stroke-linecap="round"/>
<mask id="path-4-inside-1_180_127" fill="white">
<path d="M0 49C0 46.7909 1.79086 45 4 45H33C35.2091 45 37 46.7909 37 49V150C37 152.209 35.2091 154 33 154H4C1.79086 154 0 152.209 0 150V49Z"/>
</mask>
<path d="M0 49C0 46.7909 1.79086 45 4 45H33C35.2091 45 37 46.7909 37 49V150C37 152.209 35.2091 154 33 154H4C1.79086 154 0 152.209 0 150V49Z" stroke="black" stroke-width="16" mask="url(#path-4-inside-1_180_127)"/>
<path d="M63 96V148C63 150.209 64.7909 152 67 152H92C94.2091 152 96 150.209 96 148V96" stroke="black" stroke-width="8"/>
<path d="M129 96V148C129 150.209 130.791 152 133 152H158C160.209 152 162 150.209 162 148V96" stroke="black" stroke-width="8"/>
<path d="M63 97V51C63 48.7909 64.7909 47 67 47H92C94.2091 47 96 48.7909 96 51V64" stroke="black" stroke-width="8"/>
<path d="M162 98L162 88" stroke="black" stroke-width="8"/>
</svg>
